<svg xmlns="http://www.w3.org/2000/svg" viewBox="0 0 560 280" style="width:100%;height:auto" font-family="-apple-system,Segoe UI,Roboto,Helvetica,Arial,sans-serif"><text x="16.0" y="24.0" fill="#7d8794" font-size="15" text-anchor="start" font-weight="600">Suchmaschinen-Marktanteile Schweiz</text><path d="M 150.00 54.00 A 108.00 108.00 0 1 1 52.24 116.11 L 92.07 134.80 A 64.00 64.00 0 1 0 150.00 98.00 Z" fill="#3b82f6"/><rect x="300" y="127.0" width="14" height="14" rx="3" fill="#3b82f6"/><text x="322.0" y="139.0" fill="#7d8794" font-size="14" text-anchor="start">Google  82 %</text><path d="M 52.24 116.11 A 108.00 108.00 0 0 1 99.18 66.70 L 119.89 105.53 A 64.00 64.00 0 0 0 92.07 134.80 Z" fill="rgba(128,140,160,0.85)"/><rect x="300" y="153.0" width="14" height="14" rx="3" fill="rgba(128,140,160,0.85)"/><text x="322.0" y="165.0" fill="#7d8794" font-size="14" text-anchor="start">Bing  10,2 %</text><path d="M 99.18 66.70 A 108.00 108.00 0 0 1 150.00 54.00 L 150.00 98.00 A 64.00 64.00 0 0 0 119.89 105.53 Z" fill="rgba(128,140,160,0.62)"/><rect x="300" y="179.0" width="14" height="14" rx="3" fill="rgba(128,140,160,0.62)"/><text x="322.0" y="191.0" fill="#7d8794" font-size="14" text-anchor="start">Übrige  7,8 %</text></svg>