<svg xmlns="http://www.w3.org/2000/svg" viewBox="0 0 720 260" width="720" height="260" font-family="-apple-system,Segoe UI,Roboto,Helvetica,Arial,sans-serif"><style>:root{--bg:#ffffff;--ink:#1f2937;--muted:#6b7280;--grid:#e5e7eb;--track:#eef2f7;--accent:#2563eb;--accent2:#60a5fa;--d1:#64748b;--d2:#94a3b8;--d3:#cbd5e1;--d4:#e2e8f0;--d5:#f1f5f9;}@media (prefers-color-scheme:dark){:root{--bg:#1e2129;--ink:#e5e7eb;--muted:#9aa4b2;--grid:#3a404b;--track:#2b303a;--accent:#5b9bff;--accent2:#93c5fd;--d1:#94a3b8;--d2:#7c8aa0;--d3:#647184;--d4:#4b5563;--d5:#3a404b;}}</style><rect width="720" height="260" fill="var(--bg,#ffffff)"/><text x="16.0" y="24.0" fill="var(--ink,#1f2937)" font-size="15" text-anchor="start" font-weight="600">KI-Assistenten-Marktanteile Schweiz</text><path d="M 130.00 54.00 A 90.00 90.00 0 1 1 41.63 161.05 L 76.98 154.23 A 54.00 54.00 0 1 0 130.00 90.00 Z" fill="var(--accent,#2563eb)"/><rect x="260" y="50.0" width="12" height="12" rx="2" fill="var(--accent,#2563eb)"/><text x="280.0" y="61.0" fill="var(--ink,#1f2937)" font-size="13" text-anchor="start">ChatGPT  72 %</text><path d="M 41.63 161.05 A 90.00 90.00 0 0 1 44.43 116.10 L 78.66 127.26 A 54.00 54.00 0 0 0 76.98 154.23 Z" fill="var(--d1,#64748b)"/><rect x="260" y="74.0" width="12" height="12" rx="2" fill="var(--d1,#64748b)"/><text x="280.0" y="85.0" fill="var(--ink,#1f2937)" font-size="13" text-anchor="start">Google Gemini  8 %</text><path d="M 44.43 116.10 A 90.00 90.00 0 0 1 64.92 81.84 L 90.95 106.70 A 54.00 54.00 0 0 0 78.66 127.26 Z" fill="var(--d2,#94a3b8)"/><rect x="260" y="98.0" width="12" height="12" rx="2" fill="var(--d2,#94a3b8)"/><text x="280.0" y="109.0" fill="var(--ink,#1f2937)" font-size="13" text-anchor="start">Claude  7,1 %</text><path d="M 64.92 81.84 A 90.00 90.00 0 0 1 94.37 61.35 L 108.62 94.41 A 54.00 54.00 0 0 0 90.95 106.70 Z" fill="var(--d3,#cbd5e1)"/><rect x="260" y="122.0" width="12" height="12" rx="2" fill="var(--d3,#cbd5e1)"/><text x="280.0" y="133.0" fill="var(--ink,#1f2937)" font-size="13" text-anchor="start">Microsoft Copilot  6,4 %</text><path d="M 94.37 61.35 A 90.00 90.00 0 0 1 128.53 54.01 L 129.12 90.01 A 54.00 54.00 0 0 0 108.62 94.41 Z" fill="var(--d4,#e2e8f0)"/><rect x="260" y="146.0" width="12" height="12" rx="2" fill="var(--d4,#e2e8f0)"/><text x="280.0" y="157.0" fill="var(--ink,#1f2937)" font-size="13" text-anchor="start">Perplexity  6,2 %</text><path d="M 128.53 54.01 A 90.00 90.00 0 0 1 130.00 54.00 L 130.00 90.00 A 54.00 54.00 0 0 0 129.12 90.01 Z" fill="var(--d5,#f1f5f9)"/><rect x="260" y="170.0" width="12" height="12" rx="2" fill="var(--d5,#f1f5f9)"/><text x="280.0" y="181.0" fill="var(--ink,#1f2937)" font-size="13" text-anchor="start">Übrige  0,3 %</text></svg>