<svg xmlns="http://www.w3.org/2000/svg" viewBox="0 0 560 280" style="width:100%;height:auto" font-family="-apple-system,Segoe UI,Roboto,Helvetica,Arial,sans-serif"><text x="16.0" y="24.0" fill="#7d8794" font-size="15" text-anchor="start" font-weight="600">KI-Assistenten-Marktanteile Schweiz</text><path d="M 150.00 54.00 A 108.00 108.00 0 1 1 43.96 182.46 L 87.16 174.13 A 64.00 64.00 0 1 0 150.00 98.00 Z" fill="#3b82f6"/><rect x="300" y="88.0" width="14" height="14" rx="3" fill="#3b82f6"/><text x="322.0" y="100.0" fill="#7d8794" font-size="14" text-anchor="start">ChatGPT  72 %</text><path d="M 43.96 182.46 A 108.00 108.00 0 0 1 47.32 128.52 L 89.15 142.16 A 64.00 64.00 0 0 0 87.16 174.13 Z" fill="rgba(128,140,160,0.85)"/><rect x="300" y="114.0" width="14" height="14" rx="3" fill="rgba(128,140,160,0.85)"/><text x="322.0" y="126.0" fill="#7d8794" font-size="14" text-anchor="start">Google Gemini  8 %</text><path d="M 47.32 128.52 A 108.00 108.00 0 0 1 71.90 87.41 L 103.72 117.80 A 64.00 64.00 0 0 0 89.15 142.16 Z" fill="rgba(128,140,160,0.62)"/><rect x="300" y="140.0" width="14" height="14" rx="3" fill="rgba(128,140,160,0.62)"/><text x="322.0" y="152.0" fill="#7d8794" font-size="14" text-anchor="start">Claude  7,1 %</text><path d="M 71.90 87.41 A 108.00 108.00 0 0 1 107.25 62.82 L 124.66 103.23 A 64.00 64.00 0 0 0 103.72 117.80 Z" fill="rgba(128,140,160,0.44)"/><rect x="300" y="166.0" width="14" height="14" rx="3" fill="rgba(128,140,160,0.44)"/><text x="322.0" y="178.0" fill="#7d8794" font-size="14" text-anchor="start">Microsoft Copilot  6,4 %</text><path d="M 107.25 62.82 A 108.00 108.00 0 0 1 148.23 54.01 L 148.95 98.01 A 64.00 64.00 0 0 0 124.66 103.23 Z" fill="rgba(128,140,160,0.30)"/><rect x="300" y="192.0" width="14" height="14" rx="3" fill="rgba(128,140,160,0.30)"/><text x="322.0" y="204.0" fill="#7d8794" font-size="14" text-anchor="start">Perplexity  6,2 %</text><path d="M 148.23 54.01 A 108.00 108.00 0 0 1 150.00 54.00 L 150.00 98.00 A 64.00 64.00 0 0 0 148.95 98.01 Z" fill="rgba(128,140,160,0.20)"/><rect x="300" y="218.0" width="14" height="14" rx="3" fill="rgba(128,140,160,0.20)"/><text x="322.0" y="230.0" fill="#7d8794" font-size="14" text-anchor="start">Übrige  0,3 %</text></svg>