<svg xmlns="http://www.w3.org/2000/svg" viewBox="0 0 720 260" width="720" height="260" font-family="-apple-system,Segoe UI,Roboto,Helvetica,Arial,sans-serif"><text x="16.0" y="24.0" fill="#7d8794" font-size="15" text-anchor="start" font-weight="600">Suchmaschinen-Marktanteile Schweiz</text><path d="M 130.00 54.00 A 90.00 90.00 0 1 1 48.53 105.75 L 81.12 121.05 A 54.00 54.00 0 1 0 130.00 90.00 Z" fill="#3b82f6"/><rect x="260" y="50.0" width="12" height="12" rx="2" fill="#3b82f6"/><text x="280.0" y="61.0" fill="#7d8794" font-size="13" text-anchor="start">Google  82 %</text><path d="M 48.53 105.75 A 90.00 90.00 0 0 1 87.65 64.58 L 104.59 96.35 A 54.00 54.00 0 0 0 81.12 121.05 Z" fill="rgba(128,140,160,0.85)"/><rect x="260" y="74.0" width="12" height="12" rx="2" fill="rgba(128,140,160,0.85)"/><text x="280.0" y="85.0" fill="#7d8794" font-size="13" text-anchor="start">Bing  10,2 %</text><path d="M 87.65 64.58 A 90.00 90.00 0 0 1 130.00 54.00 L 130.00 90.00 A 54.00 54.00 0 0 0 104.59 96.35 Z" fill="rgba(128,140,160,0.62)"/><rect x="260" y="98.0" width="12" height="12" rx="2" fill="rgba(128,140,160,0.62)"/><text x="280.0" y="109.0" fill="#7d8794" font-size="13" text-anchor="start">Übrige  7,8 %</text></svg>