<svg xmlns="http://www.w3.org/2000/svg" viewBox="0 0 720 296" width="720" height="296" font-family="-apple-system,Segoe UI,Roboto,Helvetica,Arial,sans-serif"><style>:root{--bg:#ffffff;--ink:#1f2937;--muted:#6b7280;--grid:#e5e7eb;--track:#eef2f7;--accent:#2563eb;--accent2:#60a5fa;--d1:#64748b;--d2:#94a3b8;--d3:#cbd5e1;--d4:#e2e8f0;--d5:#f1f5f9;}@media (prefers-color-scheme:dark){:root{--bg:#1e2129;--ink:#e5e7eb;--muted:#9aa4b2;--grid:#3a404b;--track:#2b303a;--accent:#5b9bff;--accent2:#93c5fd;--d1:#94a3b8;--d2:#7c8aa0;--d3:#647184;--d4:#4b5563;--d5:#3a404b;}}</style><rect width="720" height="296" fill="var(--bg,#ffffff)"/><text x="16.0" y="24.0" fill="var(--ink,#1f2937)" font-size="15" text-anchor="start" font-weight="600">Rankende Keywords nach Google-Position</text><text x="140.0" y="63.0" fill="var(--ink,#1f2937)" font-size="13" text-anchor="end">Platz 1</text><rect x="150" y="44.0" width="506.0" height="30" rx="4" fill="var(--track,#eef2f7)"/><rect x="150" y="44.0" width="0.0" height="30" rx="4" fill="var(--accent,#2563eb)"/><text x="664.0" y="63.0" fill="var(--ink,#1f2937)" font-size="13" text-anchor="start" font-weight="600">0</text><text x="140.0" y="105.0" fill="var(--ink,#1f2937)" font-size="13" text-anchor="end">Platz 2–3</text><rect x="150" y="86.0" width="506.0" height="30" rx="4" fill="var(--track,#eef2f7)"/><rect x="150" y="86.0" width="7.9" height="30" rx="4" fill="var(--accent,#2563eb)"/><text x="664.0" y="105.0" fill="var(--ink,#1f2937)" font-size="13" text-anchor="start" font-weight="600">2</text><text x="140.0" y="147.0" fill="var(--ink,#1f2937)" font-size="13" text-anchor="end">Platz 4–10</text><rect x="150" y="128.0" width="506.0" height="30" rx="4" fill="var(--track,#eef2f7)"/><rect x="150" y="128.0" width="59.3" height="30" rx="4" fill="var(--accent,#2563eb)"/><text x="664.0" y="147.0" fill="var(--ink,#1f2937)" font-size="13" text-anchor="start" font-weight="600">15</text><text x="140.0" y="189.0" fill="var(--ink,#1f2937)" font-size="13" text-anchor="end">Platz 11–20</text><rect x="150" y="170.0" width="506.0" height="30" rx="4" fill="var(--track,#eef2f7)"/><rect x="150" y="170.0" width="126.5" height="30" rx="4" fill="var(--accent,#2563eb)"/><text x="664.0" y="189.0" fill="var(--ink,#1f2937)" font-size="13" text-anchor="start" font-weight="600">32</text><text x="140.0" y="231.0" fill="var(--ink,#1f2937)" font-size="13" text-anchor="end">Platz 21–50</text><rect x="150" y="212.0" width="506.0" height="30" rx="4" fill="var(--track,#eef2f7)"/><rect x="150" y="212.0" width="506.0" height="30" rx="4" fill="var(--accent,#2563eb)"/><text x="664.0" y="231.0" fill="var(--ink,#1f2937)" font-size="13" text-anchor="start" font-weight="600">128</text><text x="140.0" y="273.0" fill="var(--ink,#1f2937)" font-size="13" text-anchor="end">Platz 51–100</text><rect x="150" y="254.0" width="506.0" height="30" rx="4" fill="var(--track,#eef2f7)"/><rect x="150" y="254.0" width="205.6" height="30" rx="4" fill="var(--accent,#2563eb)"/><text x="664.0" y="273.0" fill="var(--ink,#1f2937)" font-size="13" text-anchor="start" font-weight="600">52</text></svg>