<svg xmlns="http://www.w3.org/2000/svg" viewBox="0 0 720 296" style="width:100%;height:auto" font-family="-apple-system,Segoe UI,Roboto,Helvetica,Arial,sans-serif"><text x="16.0" y="24.0" fill="#7d8794" font-size="15" text-anchor="start" font-weight="600">Rankende Keywords nach Google-Position</text><text x="140.0" y="63.0" fill="#7d8794" font-size="13" text-anchor="end">Platz 1</text><rect x="150" y="44.0" width="506.0" height="30" rx="4" fill="rgba(128,140,160,0.18)"/><rect x="150" y="44.0" width="5.2" height="30" rx="4" fill="#3b82f6"/><text x="664.0" y="63.0" fill="#7d8794" font-size="13" text-anchor="start" font-weight="600">1</text><text x="140.0" y="105.0" fill="#7d8794" font-size="13" text-anchor="end">Platz 2–3</text><rect x="150" y="86.0" width="506.0" height="30" rx="4" fill="rgba(128,140,160,0.18)"/><rect x="150" y="86.0" width="20.9" height="30" rx="4" fill="#3b82f6"/><text x="664.0" y="105.0" fill="#7d8794" font-size="13" text-anchor="start" font-weight="600">4</text><text x="140.0" y="147.0" fill="#7d8794" font-size="13" text-anchor="end">Platz 4–10</text><rect x="150" y="128.0" width="506.0" height="30" rx="4" fill="rgba(128,140,160,0.18)"/><rect x="150" y="128.0" width="88.7" height="30" rx="4" fill="#3b82f6"/><text x="664.0" y="147.0" fill="#7d8794" font-size="13" text-anchor="start" font-weight="600">17</text><text x="140.0" y="189.0" fill="#7d8794" font-size="13" text-anchor="end">Platz 11–20</text><rect x="150" y="170.0" width="506.0" height="30" rx="4" fill="rgba(128,140,160,0.18)"/><rect x="150" y="170.0" width="177.4" height="30" rx="4" fill="#3b82f6"/><text x="664.0" y="189.0" fill="#7d8794" font-size="13" text-anchor="start" font-weight="600">34</text><text x="140.0" y="231.0" fill="#7d8794" font-size="13" text-anchor="end">Platz 21–50</text><rect x="150" y="212.0" width="506.0" height="30" rx="4" fill="rgba(128,140,160,0.18)"/><rect x="150" y="212.0" width="506.0" height="30" rx="4" fill="#3b82f6"/><text x="664.0" y="231.0" fill="#7d8794" font-size="13" text-anchor="start" font-weight="600">97</text><text x="140.0" y="273.0" fill="#7d8794" font-size="13" text-anchor="end">Platz 51–100</text><rect x="150" y="254.0" width="506.0" height="30" rx="4" fill="rgba(128,140,160,0.18)"/><rect x="150" y="254.0" width="229.5" height="30" rx="4" fill="#3b82f6"/><text x="664.0" y="273.0" fill="#7d8794" font-size="13" text-anchor="start" font-weight="600">44</text></svg>