<svg xmlns="http://www.w3.org/2000/svg" viewBox="0 0 720 300" style="width:100%;height:auto" font-family="-apple-system,Segoe UI,Roboto,Helvetica,Arial,sans-serif"><text x="64.0" y="24.0" fill="#7d8794" font-size="15" text-anchor="start" font-weight="600">Geschätzte Google-Sichtbarkeit (ETV) je Monat</text><line x1="64.0" y1="260.0" x2="700.0" y2="260.0" stroke="rgba(128,140,160,0.30)" stroke-width="1"/><text x="56.0" y="264.0" fill="#7d8794" font-size="12" text-anchor="end">0</text><line x1="64.0" y1="152.0" x2="700.0" y2="152.0" stroke="rgba(128,140,160,0.30)" stroke-width="1"/><text x="56.0" y="156.0" fill="#7d8794" font-size="12" text-anchor="end">500</text><line x1="64.0" y1="44.0" x2="700.0" y2="44.0" stroke="rgba(128,140,160,0.30)" stroke-width="1"/><text x="56.0" y="48.0" fill="#7d8794" font-size="12" text-anchor="end">1&apos;000</text><polygon points="64.0,260.0 64.0,96.7 223.0,86.3 382.0,116.5 541.0,140.9 700.0,161.8 700.0,260.0" fill="#3b82f6" opacity="0.08"/><polyline points="64.0,96.7 223.0,86.3 382.0,116.5 541.0,140.9 700.0,161.8" fill="none" stroke="#3b82f6" stroke-width="2.5" stroke-linejoin="round" stroke-linecap="round"/><circle cx="64.0" cy="96.7" r="3.5" fill="#3b82f6"/><text x="64.0" y="278.0" fill="#7d8794" font-size="12" text-anchor="middle">Feb 26</text><circle cx="223.0" cy="86.3" r="3.5" fill="#3b82f6"/><text x="223.0" y="278.0" fill="#7d8794" font-size="12" text-anchor="middle">Mär 26</text><circle cx="382.0" cy="116.5" r="3.5" fill="#3b82f6"/><text x="382.0" y="278.0" fill="#7d8794" font-size="12" text-anchor="middle">Apr 26</text><circle cx="541.0" cy="140.9" r="3.5" fill="#3b82f6"/><text x="541.0" y="278.0" fill="#7d8794" font-size="12" text-anchor="middle">Mai 26</text><circle cx="700.0" cy="161.8" r="3.5" fill="#3b82f6"/><text x="700.0" y="278.0" fill="#7d8794" font-size="12" text-anchor="middle">Jun 26</text><text x="700.0" y="151.8" fill="#7d8794" font-size="12" text-anchor="end" font-weight="600">454,6</text></svg>