<svg xmlns="http://www.w3.org/2000/svg" viewBox="0 0 720 300" width="720" height="300" font-family="-apple-system,Segoe UI,Roboto,Helvetica,Arial,sans-serif"><style>:root{--bg:#ffffff;--ink:#1f2937;--muted:#6b7280;--grid:#e5e7eb;--track:#eef2f7;--accent:#2563eb;--accent2:#60a5fa;--d1:#64748b;--d2:#94a3b8;--d3:#cbd5e1;--d4:#e2e8f0;--d5:#f1f5f9;}@media (prefers-color-scheme:dark){:root{--bg:#1e2129;--ink:#e5e7eb;--muted:#9aa4b2;--grid:#3a404b;--track:#2b303a;--accent:#5b9bff;--accent2:#93c5fd;--d1:#94a3b8;--d2:#7c8aa0;--d3:#647184;--d4:#4b5563;--d5:#3a404b;}}</style><rect width="720" height="300" fill="var(--bg,#ffffff)"/><text x="64.0" y="24.0" fill="var(--ink,#1f2937)" font-size="15" text-anchor="start" font-weight="600">Geschätzte Google-Sichtbarkeit (ETV) je Monat</text><line x1="64.0" y1="260.0" x2="700.0" y2="260.0" stroke="var(--grid,#e5e7eb)" stroke-width="1"/><text x="56.0" y="264.0" fill="var(--muted,#6b7280)" font-size="12" text-anchor="end">0</text><line x1="64.0" y1="152.0" x2="700.0" y2="152.0" stroke="var(--grid,#e5e7eb)" stroke-width="1"/><text x="56.0" y="156.0" fill="var(--muted,#6b7280)" font-size="12" text-anchor="end">500</text><line x1="64.0" y1="44.0" x2="700.0" y2="44.0" stroke="var(--grid,#e5e7eb)" stroke-width="1"/><text x="56.0" y="48.0" fill="var(--muted,#6b7280)" font-size="12" text-anchor="end">1&apos;000</text><polygon points="64.0,260.0 64.0,96.7 191.2,86.3 318.4,116.5 445.6,140.9 572.8,161.8 700.0,169.1 700.0,260.0" fill="var(--accent,#2563eb)" opacity="0.08"/><polyline points="64.0,96.7 191.2,86.3 318.4,116.5 445.6,140.9 572.8,161.8 700.0,169.1" fill="none" stroke="var(--accent,#2563eb)" stroke-width="2.5" stroke-linejoin="round" stroke-linecap="round"/><circle cx="64.0" cy="96.7" r="3.5" fill="var(--accent,#2563eb)"/><text x="64.0" y="278.0" fill="var(--muted,#6b7280)" font-size="12" text-anchor="middle">Feb 26</text><circle cx="191.2" cy="86.3" r="3.5" fill="var(--accent,#2563eb)"/><text x="191.2" y="278.0" fill="var(--muted,#6b7280)" font-size="12" text-anchor="middle">Mär 26</text><circle cx="318.4" cy="116.5" r="3.5" fill="var(--accent,#2563eb)"/><text x="318.4" y="278.0" fill="var(--muted,#6b7280)" font-size="12" text-anchor="middle">Apr 26</text><circle cx="445.6" cy="140.9" r="3.5" fill="var(--accent,#2563eb)"/><text x="445.6" y="278.0" fill="var(--muted,#6b7280)" font-size="12" text-anchor="middle">Mai 26</text><circle cx="572.8" cy="161.8" r="3.5" fill="var(--accent,#2563eb)"/><text x="572.8" y="278.0" fill="var(--muted,#6b7280)" font-size="12" text-anchor="middle">Jun 26</text><circle cx="700.0" cy="169.1" r="3.5" fill="var(--accent,#2563eb)"/><text x="700.0" y="278.0" fill="var(--muted,#6b7280)" font-size="12" text-anchor="middle">Jul 26</text><text x="700.0" y="159.1" fill="var(--ink,#1f2937)" font-size="12" text-anchor="end" font-weight="600">421</text></svg>